# xmcd
#
# Track frame offsets:
#	150
#	15525
#	27397
#	44587
#	75980
#	94807
#	105937
#	122447
#	136005
#	147822
#	169942
#	194195
#	208485
#
# Disc length: 2913 seconds
#
# Revision: 1
# Processed by: cddbd v1.5PL3 Copyright (c) Steve Scherf et al.
# Submitted via: audiograbber 1.80
#
DISCID=af0b5f0d
DTITLE=Petrolera Boogie Band - Petrolera Boogie Band
DYEAR=1900
DGENRE=
TTITLE0=Pueblo Fantasma
TTITLE1=Marilina
TTITLE2=El Remolcador
TTITLE3=Blues De Los Perros Azules
TTITLE4=La Francesa
TTITLE5=Blues Del Abandonado
TTITLE6=El Viejo Contrabandista
TTITLE7=Ginebra Y Blues
TTITLE8=Noches De Rock'n'roll
TTITLE9=Solo Una Rata Mas
TTITLE10=Dockoil Blues
TTITLE11=Rompiendo Los Caminos
TTITLE12=Dando Vueltas
EXTD=by Nandosound
EXTT0=
EXTT1=
EXTT2=
EXTT3=
EXTT4=
EXTT5=
EXTT6=
EXTT7=
EXTT8=
EXTT9=
EXTT10=
EXTT11=
EXTT12=
PLAYORDER=
